<svg id="Layer_1" data-name="Layer 1" xmlns="http://www.w3.org/2000/svg" width="256" height="256" viewBox="0 0 256 256"><title>icons</title><g id="EchrY9"><path d="M0,77.9c.8-6.1,1.5-12.2,2.6-18.2C8.7,25.5,32.5,2.3,66.6,1.1c41.1-1.4,82.3-1.5,123.3,0,37.1,1.3,64,29.2,65.2,66.9,1.2,39.9,1.2,80,0,120-1.2,37.6-28.1,65.5-65.2,66.9-41,1.5-82.2,1.5-123.3-.1-37.1-1.4-62.7-29.3-65.2-67-.2-3.3-.9-6.5-1.4-9.7ZM128.4,232.5c18.8,0,37.6.6,56.4-.1,29-1.1,47-18.9,47.8-48.4.9-37.3.9-74.8-.1-112.1-.7-29.5-18.8-47.6-47.8-48.3q-56.2-1.2-112.7,0c-29,.7-47.1,18.8-47.8,48.3q-1.3,56.1,0,112.2c.8,29.5,18.8,47.2,47.9,48.3C90.8,233.1,109.6,232.5,128.4,232.5Z" fill="#1e1e1e"/><path d="M128.7,193.9a65.9,65.9,0,1,1,65.6-66.2A65.9,65.9,0,0,1,128.7,193.9ZM85.7,128a42.7,42.7,0,1,0,42.7-43A42.7,42.7,0,0,0,85.7,128Z" fill="#1e1e1e"/><path d="M181.8,59.1a15.2,15.2,0,1,1,15,15.6A15.3,15.3,0,0,1,181.8,59.1Z" fill="#1e1e1e"/></g></svg>