<svg id="Layer_1" data-name="Layer 1" xmlns="http://www.w3.org/2000/svg" width="256" height="256" viewBox="0 0 256 256"><title>icons</title><g id="EchrY9"><path d="M.1,77.7c.8-6,1.5-12.1,2.6-18.2C8.8,25.4,32.6,2.1,66.7.9,107.8-.5,149-.6,190,.9c37.1,1.4,64,29.3,65.2,66.9q1.8,60,0,120c-1.2,37.7-28.1,65.5-65.2,66.9-41,1.5-82.2,1.5-123.3,0-37.1-1.4-62.8-29.4-65.2-67.1-.3-3.2-.9-6.5-1.4-9.7ZM128.5,232.4c18.8,0,37.6.6,56.4-.2,29-1.1,47-18.8,47.7-48.3q1.5-56.1,0-112.2c-.7-29.5-18.8-47.6-47.8-48.2q-56.4-1.3-112.7,0c-29,.6-47.1,18.7-47.8,48.3-.9,37.3-.9,74.8,0,112.1.7,29.5,18.8,47.2,47.8,48.3C90.9,233,109.7,232.4,128.5,232.4Z" fill="#1e1e1e"/></g><g id="EWMfUo"><path d="M45,103.7l11-9.1c6.4-5.4,12.6-10.9,19.4-15.7,4.3-3,8.6-5.9,13.5-7.5a18,18,0,0,1,21.8,8.7,47.3,47.3,0,0,1,4.8,15.2c1.3,6.8,2.4,13.6,3.5,20.5a161.4,161.4,0,0,0,5.4,22.6,40.5,40.5,0,0,0,4.1,9.3c3.3,5,5.9,5,10,1.5s7.2-7.9,10.2-12.3a94.1,94.1,0,0,0,8.8-15.4,25.3,25.3,0,0,0,2.2-10.9c-.3-6-4-8.5-8.9-8.9a30,30,0,0,0-11.9,1.5l-1.6.5h-.2a65.7,65.7,0,0,1,4.7-11.3,44.7,44.7,0,0,1,14-16.5A39.7,39.7,0,0,1,174,69.3a51.4,51.4,0,0,1,13,0,19.9,19.9,0,0,1,17.4,15.4c2.6,10.4,1.4,20.4-2.7,30.1s-10.5,20-17.2,29.1a269.1,269.1,0,0,1-29.2,33.9,92,92,0,0,1-18.5,14.4c-5.5,3.2-11.2,5.6-17.6,6.1s-11.1-1.9-15.1-6.4c-6-6.7-9.4-14.8-12-23.3-4.3-14.7-8.4-29.4-13.1-44-1.7-5.3-3.8-10.4-7.2-14.8a16,16,0,0,0-2.6-2.6,5.4,5.4,0,0,0-6.5-.6c-3.1,1.7-6,3.7-9.1,5.5-.7.5-1.1.5-1.7-.2C49.7,109.1,47.4,106.4,45,103.7Z" fill="#1e1e1e"/></g></svg>