<svg id="Layer_1" data-name="Layer 1" xmlns="http://www.w3.org/2000/svg" width="256" height="256" viewBox="0 0 256 256"><title>icons</title><g id="EchrY9"><path d="M.1,77.7c.8-6,1.5-12.1,2.6-18.2C8.8,25.4,32.6,2.1,66.7.9,107.8-.5,149-.6,190,.9c37.1,1.4,64,29.3,65.2,66.9q1.8,60,0,120c-1.2,37.7-28.1,65.5-65.2,66.9-41,1.5-82.2,1.5-123.3,0-37.1-1.4-62.8-29.4-65.2-67.1-.3-3.2-.9-6.5-1.4-9.7ZM128.5,232.4c18.8,0,37.6.6,56.4-.2,29-1.1,47-18.8,47.7-48.3q1.5-56.1,0-112.2c-.7-29.5-18.8-47.6-47.8-48.2q-56.4-1.3-112.7,0c-29,.6-47.1,18.7-47.8,48.3-.9,37.3-.9,74.8,0,112.1.7,29.5,18.8,47.2,47.8,48.3C90.9,233,109.7,232.4,128.5,232.4Z" fill="#1e1e1e"/></g><g id="LgUAW2"><path d="M115.1,124.4a21.9,21.9,0,0,1,9.2,6.1c4.2,4.9,5.5,10.9,5.2,17.2a27.3,27.3,0,0,1-10.3,20.7,27,27,0,0,1-12.7,5.3,74.9,74.9,0,0,1-13.4,1h-39c-1.1,0-1.3-.2-1.3-1.3V82.3c0-1,.2-1.3,1.3-1.3H97.3a41.2,41.2,0,0,1,13.9,2.1c8,2.9,13.2,8.2,14.8,16.6,1.2,6.1.9,12.1-2.4,17.5a18.7,18.7,0,0,1-6.6,6.2ZM74.4,145.9c0,3.8.1,7.6,0,11.5,0,.8.3,1.1,1.1,1h8.8c4.7-.1,9.4.3,14.1-.3,3.2-.3,6.2-1.2,8.4-3.7s3.4-7.4,2.8-11.7a9.4,9.4,0,0,0-6.4-7.9,20,20,0,0,0-6.8-1.3H75.3c-.7,0-.9.3-.9,1Zm12.4-28c3.6-.1,7.8.3,12.1-.4a11.6,11.6,0,0,0,6.2-2.7c2.5-2.1,2.9-5.1,2.8-8.1-.2-4.8-2.3-7.4-7-8.5a33.1,33.1,0,0,0-7.7-.9H75.5c-.9,0-1.1.3-1.1,1.1v18.5c0,1,.4,1.1,1.2,1.1Z" fill="#1e1e1e"/><path d="M178.9,143.1H155.7c-1,0-1.3.2-1.2,1.2.5,4.4,1.6,8.4,5,11.5s7.7,4.1,12.2,4a15,15,0,0,0,8.5-2.6,11.5,11.5,0,0,0,3.7-4.2,1.7,1.7,0,0,1,1.6-.9h15.8c1,0,1.1.2.9,1.2a19.7,19.7,0,0,1-3.8,8c-4.2,5.6-9.5,9.6-16.3,11.3-12.6,3.1-24.4,1.5-34.8-6.7a25.1,25.1,0,0,1-9.1-15,52.4,52.4,0,0,1-.2-23.3c2.9-12.7,10.8-20.9,23.6-23.8a36.9,36.9,0,0,1,27,3.7c4.9,2.8,8.3,7,10.9,12a34.2,34.2,0,0,1,3.6,14.1c.2,2.8.2,5.6.3,8.3,0,1-.2,1.3-1.2,1.3ZM170,131.6h12.8c2.3,0,2.4-.1,2-2.2a13.1,13.1,0,0,0-7.3-10.4,17.4,17.4,0,0,0-10.5-1.4,12.2,12.2,0,0,0-8.3,4.7,19.3,19.3,0,0,0-3.6,8.3c-.2.8.1,1,.9,1Z" fill="#1e1e1e"/><path d="M169.9,94.3H152.1c-.8,0-1.1-.2-1.1-1.1.1-2.5.1-4.9,0-7.4,0-.8.2-.9,1-.9h35.7c.8,0,1.1.1,1.1,1s0,4.9,0,7.4c0,.8-.2,1-1,1Z" fill="#1e1e1e"/></g></svg>