<svg xmlns="http://www.w3.org/2000/svg" id="Layer_1" width="256" height="256" data-name="Layer 1" viewBox="0 0 256 256"><path fill="#fff" d="M80.2 231.6c95.2 0 147.3-78.9 147.3-147.3 0-2.2 0-4.5-.1-6.7a105.3 105.3 0 0 0 25.8-26.8 103.3 103.3 0 0 1-29.8 8.2 51.9 51.9 0 0 0 22.8-28.6A103.7 103.7 0 0 1 213.3 43a51.8 51.8 0 0 0-88.2 47.2A147 147 0 0 1 18.4 36a51.8 51.8 0 0 0 16 69.1A51.4 51.4 0 0 1 11 98.7v.7a51.8 51.8 0 0 0 41.5 50.7 51.7 51.7 0 0 1-23.4.9 51.8 51.8 0 0 0 48.4 36 103.9 103.9 0 0 1-64.3 22.2 105.4 105.4 0 0 1-12.3-.7 146.5 146.5 0 0 0 79.3 23.3"/></svg>