<svg xmlns="http://www.w3.org/2000/svg" id="Layer_1" width="256" height="256" data-name="Layer 1" viewBox="0 0 256 256"><g id="EchrY9" fill="#fff"><path d="M0 77.9c.8-6.1 1.5-12.2 2.6-18.2 6.1-34.2 29.9-57.4 64-58.6 41.1-1.4 82.2-1.5 123.3 0 37.1 1.4 64 29.2 65.2 66.9q1.8 60 0 120c-1.2 37.6-28 65.5-65.2 66.9-41.1 1.5-82.2 1.5-123.3 0-37.1-1.4-62.8-29.3-65.3-67-.2-3.3-.9-6.5-1.4-9.7Q0 128 0 77.9zm128.4 154.6c18.8 0 37.6.6 56.4-.1 29-1.1 47.1-18.9 47.8-48.4q1.4-56.1 0-112.2c-.7-29.5-18.8-47.6-47.8-48.2q-56.3-1.2-112.7 0c-29 .6-47.1 18.8-47.8 48.3q-1.4 56.1 0 112.2c.7 29.5 18.8 47.2 47.8 48.3 18.7.7 37.5.1 56.3.1z"/><path d="M128.7 193.9a65.9 65.9 0 1 1 65.7-66.2 65.9 65.9 0 0 1-65.7 66.2zm-43-65.9a42.7 42.7 0 1 0 42.7-43 42.7 42.7 0 0 0-42.7 43zm96.1-68.9a15.1 15.1 0 1 1 15 15.5 15.3 15.3 0 0 1-15-15.5z"/></g></svg>