<svg xmlns="http://www.w3.org/2000/svg" id="Layer_1" width="256" height="256" data-name="Layer 1" viewBox="0 0 256 256"><path fill="#fff" d="M222.1.7L35.4-.3A34.4 34.4 0 0 0 .7 33.9l-1 186.7a34.4 34.4 0 0 0 34.2 34.6l92.1.5.7-91.3H103a5.6 5.6 0 0 1-5.6-5.6v-29.5a5.6 5.6 0 0 1 5.6-5.6h23.7l.2-28.4c.2-33 20.4-50.9 49.9-50.7H201a5.6 5.6 0 0 1 5.6 5.6v25.1a5.6 5.6 0 0 1-5.6 5.6h-15.1c-16-.1-19.2 7.5-19.2 18.7V124l35.2.2a5.6 5.6 0 0 1 5.5 6.3l-3.7 29.4a5.6 5.6 0 0 1-5.6 4.9l-31.5-.2-.7 91.3 54.8.3a34.4 34.4 0 0 0 34.6-34.2l1.1-186.7A34.4 34.4 0 0 0 222.1.7z"/></svg>