<svg xmlns="http://www.w3.org/2000/svg"><symbol id="social-twitter" viewBox="0 0 256 256"><path fill="#fff" d="M80.2 231.6c95.2 0 147.3-78.9 147.3-147.3 0-2.2 0-4.5-.1-6.7a105.3 105.3 0 0 0 25.8-26.8 103.3 103.3 0 0 1-29.8 8.2 51.9 51.9 0 0 0 22.8-28.6A103.7 103.7 0 0 1 213.3 43a51.8 51.8 0 0 0-88.2 47.2A147 147 0 0 1 18.4 36a51.8 51.8 0 0 0 16 69.1A51.4 51.4 0 0 1 11 98.7v.7a51.8 51.8 0 0 0 41.5 50.7 51.7 51.7 0 0 1-23.4.9 51.8 51.8 0 0 0 48.4 36 103.9 103.9 0 0 1-64.3 22.2 105.4 105.4 0 0 1-12.3-.7 146.5 146.5 0 0 0 79.3 23.3"/></symbol><symbol id="social-facebook" viewBox="0 0 256 256"><path fill="#fff" d="M222.1.7L35.4-.3A34.4 34.4 0 0 0 .7 33.9l-1 186.7a34.4 34.4 0 0 0 34.2 34.6l92.1.5.7-91.3H103a5.6 5.6 0 0 1-5.6-5.6v-29.5a5.6 5.6 0 0 1 5.6-5.6h23.7l.2-28.4c.2-33 20.4-50.9 49.9-50.7H201a5.6 5.6 0 0 1 5.6 5.6v25.1a5.6 5.6 0 0 1-5.6 5.6h-15.1c-16-.1-19.2 7.5-19.2 18.7V124l35.2.2a5.6 5.6 0 0 1 5.5 6.3l-3.7 29.4a5.6 5.6 0 0 1-5.6 4.9l-31.5-.2-.7 91.3 54.8.3a34.4 34.4 0 0 0 34.6-34.2l1.1-186.7A34.4 34.4 0 0 0 222.1.7z"/></symbol><symbol id="social-instagram" viewBox="0 0 256 256"><g id="EchrY9" fill="#fff"><path d="M0 77.9c.8-6.1 1.5-12.2 2.6-18.2 6.1-34.2 29.9-57.4 64-58.6 41.1-1.4 82.2-1.5 123.3 0 37.1 1.4 64 29.2 65.2 66.9q1.8 60 0 120c-1.2 37.6-28 65.5-65.2 66.9-41.1 1.5-82.2 1.5-123.3 0-37.1-1.4-62.8-29.3-65.3-67-.2-3.3-.9-6.5-1.4-9.7Q0 128 0 77.9zm128.4 154.6c18.8 0 37.6.6 56.4-.1 29-1.1 47.1-18.9 47.8-48.4q1.4-56.1 0-112.2c-.7-29.5-18.8-47.6-47.8-48.2q-56.3-1.2-112.7 0c-29 .6-47.1 18.8-47.8 48.3q-1.4 56.1 0 112.2c.7 29.5 18.8 47.2 47.8 48.3 18.7.7 37.5.1 56.3.1z"/><path d="M128.7 193.9a65.9 65.9 0 1 1 65.7-66.2 65.9 65.9 0 0 1-65.7 66.2zm-43-65.9a42.7 42.7 0 1 0 42.7-43 42.7 42.7 0 0 0-42.7 43zm96.1-68.9a15.1 15.1 0 1 1 15 15.5 15.3 15.3 0 0 1-15-15.5z"/></g></symbol></svg>